# xmcd
#
# Track frame offsets:
#	150
#	17885
#	38768
#	55520
#	73863
#	93705
#	111950
#	132590
#	150395
#	166485
#	184638
#	200283
#	214898
#	228020
#	244973
#	287108
#	310838
#	332365
#
# Disc length: 4673 seconds
#
# Revision: 1
# Processed by: cddbd v1.5.2PL0 Copyright (c) Steve Scherf et al.
# Submitted via: audiograbber 1.83.01
#
DISCID=fc123f12
DTITLE=Simply Red - Blue (Special Edition)
DYEAR=1998
DGENRE=Soul
TTITLE0=Mellow My Mind
TTITLE1=Blue
TTITLE2=Say You Love Me
TTITLE3=To Be Free
TTITLE4=The Air That I Breathe
TTITLE5=Someday In My Life
TTITLE6=The Air That I Breathe (reprise)
TTITLE7=Night Nurse
TTITLE8=Broken Man
TTITLE9=Come Get Me Angel
TTITLE10=Ghetto Girl
TTITLE11=Love Has Said Goodbye Again
TTITLE12=High Fives
TTITLE13=Ghetto Girl (Blood and Fire Sound System Mix)
TTITLE14=To Be Free (Lynn Joy A Hanetta Mix)
TTITLE15=Love Has Said Goodbye Again (Rae and Christian Mix)
TTITLE16=So Jungiful
TTITLE17=Tu Sei Dentro Di Me (Someday In My Life)
EXTD=YEAR: 2008
EXTT0=
EXTT1=
EXTT2=
EXTT3=
EXTT4=
EXTT5=
EXTT6=
EXTT7=
EXTT8=
EXTT9=
EXTT10=
EXTT11=
EXTT12=
EXTT13=
EXTT14=
EXTT15=
EXTT16=
EXTT17=
PLAYORDER=
